<?xml version="1.0" encoding="UTF-8"?>
<svg id="Ebene_2" data-name="Ebene 2" xmlns="http://www.w3.org/2000/svg" viewBox="0 0 495.21 328">
  <defs>
    <style>
      .cls-1 {
        fill: #683c11;
      }

      .cls-2 {
        fill: none;
        stroke: #1a1a1c;
        stroke-linecap: round;
        stroke-linejoin: round;
        stroke-width: 10px;
      }
    </style>
  </defs>
  <g id="Ebene_1-2" data-name="Ebene 1">
    <g>
      <path class="cls-1" d="M274.83,99.83c2.73-.15,7.31,5.78,8.79,8.26,20.07,33.57-18.1,87.08-56.73,75.91,4.04-4.35,9.53-7.02,13.58-11.45,19.78-21.62,2.63-37.64,13.85-57,2.73-4.71,15.28-15.43,20.51-15.71Z"/>
      <path class="cls-1" d="M251.39,92.37c4.68-.3,9.66.39,14.12,1.86-12.16,6.58-23.21,18.65-24.5,33.03-.71,7.87,2.06,16.35,1.07,23.97-1.52,11.7-15.21,23.91-26.37,26.9-30.29-27.45-1.66-83.36,35.69-85.76Z"/>
    </g>
    <g>
      <path class="cls-2" d="M242.61,67.01c94.71-4.53,101.93,139.02,7.26,144.01-95.13,5.02-102.35-139.46-7.26-144.01Z"/>
      <path class="cls-2" d="M228.01,272.81c-.87-5.3-2.73-26.49-6.3-29.1-1.53-1.12-9.2-2.38-12.02-3.54-7.73-3.2-15.12-6.91-22.78-10.25l-24.23,16.57c-3.57-5.17-22.25-19.48-23.89-23.7-1.51-3.86,17.11-21.66,16.23-26.54-.37-2.06-5.84-10.53-7.21-13.92-1.29-3.17-6.41-19.17-7.34-20.12-3.42-3.5-26.64-3.74-28.08-5.99l-.14-33.75c1.52-3.49,25.85-3.41,29.1-7.84,1.13-1.54,4.26-14.06,5.82-17.72,2.47-5.79,5.39-11.1,9.01-16.24l-17.85-24.85,24.69-24.87c2.88-1.17,20.2,17.69,25.15,17.11,1.95-.23,11.25-6.04,14.55-7.34,3.06-1.2,19.16-6.31,19.99-7.21,3.16-3.43,3.21-22.83,6.9-27.91,1.27-1.03,31-.66,32.58.33,3.96,2.48,4.3,26.21,7.41,28.66,7.66-1.56,31.71,13.81,34.98,13.6,5-.32,17.97-15.85,24.96-16.61,1.62.43,23.09,22.15,23.78,23.68,1.54,3.38-15.75,20.57-16.25,25.54,5.78,5.32,11.39,31.75,14.59,34.96s26.72,3.77,28.07,5.87l.14,34.11c-1.31,3.01-26,3.12-29.1,7.61-1.06,1.53-3.68,12.93-5.19,16.45-1.33,3.11-9.11,17.38-9.01,18.85.22,3.32,18.15,20.57,17.38,23.34-5.4,3.7-19.78,22.64-24.23,24.42-4.11,1.64-20.49-17.04-25.77-16.37-2.25.29-9.51,5.31-12.65,6.58s-21.21,7-22.02,7.85c-3.17,3.31-3.51,26-7.18,28.2l-34.1.14Z"/>
    </g>
    <g>
      <path class="cls-1" d="M0,327.41v-43.65h11.84v9.38l-.23,12.57.23,5.77v15.94H0ZM8.99,319.76v-10.02c.8-1.84,1.58-3.49,2.34-4.97s1.66-2.97,2.68-4.5,2.31-3.29,3.85-5.3l8.67-11.22h14.03l-18.25,22.47-1.11-.47-12.22,14ZM27.45,327.41l-10.52-17.55,7.5-8.67,16.96,26.22h-13.95Z"/>
      <path class="cls-1" d="M54.87,327.94c-2.09,0-3.94-.35-5.55-1.04s-2.87-1.74-3.76-3.15c-.9-1.41-1.35-3.19-1.35-5.36,0-1.8.3-3.33.91-4.6.6-1.27,1.45-2.31,2.55-3.12,1.09-.81,2.37-1.44,3.82-1.88,1.45-.44,3.03-.72,4.73-.83,1.84-.14,3.31-.3,4.41-.5,1.1-.2,1.9-.48,2.4-.86s.75-.88.75-1.51v-.12c0-.57-.15-1.04-.45-1.44-.3-.39-.73-.69-1.27-.89-.55-.21-1.2-.31-1.96-.31s-1.42.11-2.02.32c-.61.21-1.11.54-1.51.97-.4.43-.67.98-.81,1.64l-10.61-1.05c.31-1.84,1.07-3.51,2.29-5.01,1.21-1.5,2.89-2.71,5.02-3.6s4.74-1.35,7.81-1.35c2.32,0,4.43.27,6.31.82,1.88.55,3.5,1.31,4.83,2.29,1.34.98,2.36,2.11,3.08,3.41.71,1.3,1.07,2.7,1.07,4.2v22.44h-11.02v-4.63h-.23c-.66,1.23-1.46,2.22-2.39,2.97-.93.75-1.98,1.3-3.15,1.66s-2.47.53-3.9.53ZM58.68,320.5c.9,0,1.74-.19,2.53-.56s1.44-.9,1.93-1.6.75-1.54.75-2.53v-2.7c-.31.12-.64.23-1,.35s-.73.22-1.13.32c-.4.1-.81.19-1.23.26-.42.08-.86.16-1.33.23-.92.14-1.67.37-2.24.69-.58.32-1,.71-1.27,1.17-.27.46-.41.97-.41,1.54,0,.61.15,1.12.44,1.54s.69.74,1.2.95c.51.21,1.09.32,1.76.32Z"/>
      <path class="cls-1" d="M102.3,294.66v8.55h-23.17v-8.55h23.17ZM84.35,327.41v-33.69c0-2.7.48-4.93,1.44-6.71.96-1.78,2.31-3.11,4.07-3.98s3.83-1.32,6.21-1.32c1.5,0,2.96.12,4.38.35,1.42.23,2.46.43,3.12.59l-1.7,8.44c-.43-.12-.92-.21-1.48-.29s-1.06-.12-1.51-.12c-1.09,0-1.84.23-2.23.7-.39.47-.59,1.09-.59,1.88v34.16h-11.72Z"/>
      <path class="cls-1" d="M124.98,294.66v8.55h-23.17v-8.55h23.17ZM107.02,327.41v-33.69c0-2.7.48-4.93,1.44-6.71.96-1.78,2.31-3.11,4.07-3.98s3.83-1.32,6.21-1.32c1.5,0,2.96.12,4.38.35,1.42.23,2.46.43,3.12.59l-1.7,8.44c-.43-.12-.92-.21-1.48-.29s-1.06-.12-1.51-.12c-1.09,0-1.84.23-2.23.7-.39.47-.59,1.09-.59,1.88v34.16h-11.72Z"/>
      <path class="cls-1" d="M144.35,328c-3.5,0-6.51-.67-9.04-2.01-2.53-1.34-4.47-3.27-5.82-5.79s-2.02-5.55-2.02-9.08.68-6.33,2.04-8.86c1.36-2.53,3.28-4.5,5.76-5.9,2.48-1.41,5.41-2.11,8.79-2.11,2.48,0,4.72.39,6.72,1.16,2,.77,3.72,1.88,5.14,3.34,1.43,1.46,2.52,3.22,3.28,5.29s1.14,4.41,1.14,7.03v2.7h-29.24v-6.45h23.73l-5.51,1.35c0-1.33-.2-2.45-.59-3.35-.39-.91-.97-1.6-1.73-2.08s-1.71-.72-2.84-.72-2.08.24-2.84.72-1.34,1.17-1.73,2.08c-.39.91-.59,2.03-.59,3.35v4.69c0,1.45.23,2.64.69,3.59.46.95,1.11,1.65,1.95,2.11.84.46,1.82.69,2.93.69.8,0,1.53-.11,2.18-.34.65-.22,1.22-.55,1.68-.97s.82-.93,1.05-1.54l10.37,1.52c-.55,1.95-1.51,3.65-2.9,5.08-1.39,1.44-3.14,2.54-5.26,3.33-2.12.78-4.58,1.17-7.37,1.17Z"/>
      <path class="cls-1" d="M180.73,328c-3.5,0-6.51-.67-9.04-2.01-2.53-1.34-4.47-3.27-5.82-5.79s-2.02-5.55-2.02-9.08.68-6.33,2.04-8.86c1.36-2.53,3.28-4.5,5.76-5.9,2.48-1.41,5.41-2.11,8.79-2.11,2.48,0,4.72.39,6.72,1.16,2,.77,3.72,1.88,5.14,3.34,1.43,1.46,2.52,3.22,3.28,5.29s1.14,4.41,1.14,7.03v2.7h-29.24v-6.45h23.73l-5.51,1.35c0-1.33-.2-2.45-.59-3.35-.39-.91-.97-1.6-1.73-2.08s-1.71-.72-2.84-.72-2.08.24-2.84.72-1.34,1.17-1.73,2.08c-.39.91-.59,2.03-.59,3.35v4.69c0,1.45.23,2.64.69,3.59.46.95,1.11,1.65,1.95,2.11.84.46,1.82.69,2.93.69.8,0,1.53-.11,2.18-.34.65-.22,1.22-.55,1.68-.97s.82-.93,1.05-1.54l10.37,1.52c-.55,1.95-1.51,3.65-2.9,5.08-1.39,1.44-3.14,2.54-5.26,3.33-2.12.78-4.58,1.17-7.37,1.17Z"/>
      <path class="cls-1" d="M201.42,327.41v-43.65h11.78v43.65h-11.78ZM211.96,319.68v-14h1.64l7.91-11.02h13.24l-13.3,17.17h-3.34l-6.15,7.85ZM221.63,327.41l-7.5-12.95,7.68-8.38,13.24,21.33h-13.42Z"/>
      <path class="cls-1" d="M237.8,327.41v-32.75h11.43v6.27h.35c.59-2.32,1.53-4.02,2.83-5.08s2.82-1.6,4.56-1.6c.51,0,1.02.04,1.52.12s1,.2,1.46.35v10.02c-.59-.21-1.3-.37-2.15-.45s-1.58-.13-2.18-.13c-1.15,0-2.19.26-3.11.78s-1.64,1.24-2.15,2.17-.78,2.02-.78,3.27v17.05h-11.78Z"/>
      <path class="cls-1" d="M271.44,327.94c-2.09,0-3.94-.35-5.55-1.04s-2.87-1.74-3.76-3.15-1.35-3.19-1.35-5.36c0-1.8.3-3.33.91-4.6s1.46-2.31,2.55-3.12,2.37-1.44,3.82-1.88,3.03-.72,4.73-.83c1.84-.14,3.31-.3,4.41-.5s1.9-.48,2.4-.86.75-.88.75-1.51v-.12c0-.57-.15-1.04-.45-1.44s-.73-.69-1.27-.89-1.2-.31-1.96-.31-1.42.11-2.02.32-1.11.54-1.51.97-.67.98-.81,1.64l-10.61-1.05c.31-1.84,1.07-3.51,2.29-5.01s2.89-2.71,5.02-3.6,4.74-1.35,7.81-1.35c2.32,0,4.43.27,6.31.82s3.5,1.31,4.83,2.29,2.36,2.11,3.08,3.41,1.07,2.7,1.07,4.2v22.44h-11.02v-4.63h-.23c-.66,1.23-1.46,2.22-2.39,2.97s-1.98,1.3-3.15,1.66-2.47.53-3.9.53ZM275.24,320.5c.9,0,1.74-.19,2.53-.56s1.44-.9,1.93-1.6.75-1.54.75-2.53v-2.7c-.31.12-.64.23-1,.35s-.73.22-1.13.32-.81.19-1.23.26-.86.16-1.33.23c-.92.14-1.67.37-2.24.69s-1,.71-1.27,1.17-.41.97-.41,1.54c0,.61.15,1.12.44,1.54s.69.74,1.2.95,1.09.32,1.76.32Z"/>
      <path class="cls-1" d="M318.87,294.66v8.55h-23.17v-8.55h23.17ZM300.91,327.41v-33.69c0-2.7.48-4.93,1.44-6.71s2.31-3.11,4.07-3.98,3.83-1.32,6.21-1.32c1.5,0,2.96.12,4.38.35s2.46.43,3.12.59l-1.7,8.44c-.43-.12-.92-.21-1.48-.29s-1.06-.12-1.51-.12c-1.09,0-1.84.23-2.23.7s-.59,1.09-.59,1.88v34.16h-11.72Z"/>
      <path class="cls-1" d="M339.93,294.66v8.55h-21.56v-8.55h21.56ZM322.53,286.86h11.78v30.03c0,.68.18,1.2.53,1.54s.92.51,1.7.51c.35,0,.86-.04,1.54-.13s1.12-.17,1.33-.25l1.41,8.41c-1.35.37-2.62.62-3.81.75s-2.31.19-3.37.19c-3.67,0-6.44-.84-8.31-2.52s-2.8-4.15-2.8-7.41v-31.11Z"/>
      <path class="cls-1" d="M352.59,327.41l-9.43-32.75h12.3l1.88,10.25c.43,2.34.9,4.82,1.42,7.44s.96,5.45,1.33,8.5h-1.08c.45-3.05.98-5.88,1.58-8.51s1.15-5.1,1.64-7.43l2.2-10.25h10.2l2.08,10.25c.47,2.34,1.01,4.82,1.63,7.44s1.15,5.45,1.6,8.5h-1.03c.35-3.05.76-5.88,1.23-8.5s.92-5.1,1.35-7.44l1.88-10.25h12.54l-9.55,32.75h-12.07l-3.11-10.78c-.29-1.04-.59-2.31-.89-3.82s-.6-3.05-.88-4.6-.57-2.89-.86-4h1.88c-.27,1.11-.56,2.45-.85,4s-.59,3.09-.88,4.6-.6,2.79-.91,3.82l-3.11,10.78h-12.07Z"/>
      <path class="cls-1" d="M413.94,328c-3.5,0-6.51-.67-9.04-2.01s-4.47-3.27-5.82-5.79-2.02-5.55-2.02-9.08.68-6.33,2.04-8.86,3.28-4.5,5.76-5.9,5.41-2.11,8.79-2.11c2.48,0,4.72.39,6.72,1.16s3.72,1.88,5.14,3.34,2.52,3.22,3.28,5.29,1.14,4.41,1.14,7.03v2.7h-29.24v-6.45h23.73l-5.51,1.35c0-1.33-.2-2.45-.59-3.35s-.97-1.6-1.73-2.08-1.71-.72-2.84-.72-2.08.24-2.84.72-1.34,1.17-1.73,2.08-.59,2.03-.59,3.35v4.69c0,1.45.23,2.64.69,3.59s1.11,1.65,1.95,2.11,1.82.69,2.93.69c.8,0,1.53-.11,2.18-.34s1.22-.55,1.68-.97.82-.93,1.05-1.54l10.37,1.52c-.55,1.95-1.51,3.65-2.9,5.08s-3.14,2.54-5.26,3.33-4.58,1.17-7.37,1.17Z"/>
      <path class="cls-1" d="M434.62,327.41v-32.75h11.43v6.27h.35c.59-2.32,1.53-4.02,2.83-5.08s2.82-1.6,4.56-1.6c.51,0,1.02.04,1.52.12s1,.2,1.46.35v10.02c-.59-.21-1.3-.37-2.15-.45s-1.58-.13-2.18-.13c-1.15,0-2.19.26-3.11.78s-1.64,1.24-2.15,2.17-.78,2.02-.78,3.27v17.05h-11.78Z"/>
      <path class="cls-1" d="M461.57,327.41v-43.65h11.78v43.65h-11.78ZM472.12,319.68v-14h1.64l7.91-11.02h13.24l-13.3,17.17h-3.34l-6.15,7.85ZM481.79,327.41l-7.5-12.95,7.68-8.38,13.24,21.33h-13.42Z"/>
    </g>
  </g>
</svg>